<?xml version="1.0" encoding="UTF-8"?>
<svg id="Layer_1" xmlns="http://www.w3.org/2000/svg" version="1.1" viewBox="0 0 512 512">
  <!-- Generator: Adobe Illustrator 29.8.3, SVG Export Plug-In . SVG Version: 2.1.1 Build 3)  -->
  <path d="M332.1,436h-152.1c-57.3,0-103.9-46.6-103.9-103.9v-152.1c0-57.3,46.6-103.9,103.9-103.9h152.1c57.3,0,103.9,46.6,103.9,103.9v152.1c0,57.3-46.6,103.9-103.9,103.9ZM179.9,103.3c-42.3,0-76.6,34.4-76.6,76.6v152.1c0,42.3,34.4,76.6,76.6,76.6h152.1c42.3,0,76.6-34.4,76.6-76.6v-152.1c0-42.3-34.4-76.6-76.6-76.6h-152.1Z"/>
  <rect x="185.3" y="90.8" width="30" height="330.4"/>
  <rect x="201" y="303.9" width="222.3" height="30"/>
</svg>